<svg width="25" height="24" viewBox="0 0 25 24" fill="none" xmlns="http://www.w3.org/2000/svg">
<path d="M20.391 21.3683C18.337 23.0152 15.7297 24 12.8926 24C9.58246 24 6.58554 22.6594 4.41455 20.4915C6.8979 21.9428 9.95964 22.7996 13.272 22.7996C15.8479 22.7996 18.2723 22.2815 20.391 21.3683Z" fill="#0077B6"/>
<path d="M23.4986 17.0249C23.4992 17.3277 23.531 17.6336 23.3759 17.9108C23.3732 17.9155 23.3706 17.9203 23.3681 17.9248C23.3634 17.9334 23.3585 17.9422 23.3536 17.9508C23.346 17.9646 23.3382 17.9781 23.3304 17.9919C23.3193 18.0116 23.308 18.0313 23.2967 18.051C23.2904 18.0622 23.2838 18.0737 23.2773 18.085C23.2551 18.1232 23.2327 18.1613 23.2102 18.1995C22.1798 18.9662 21.0123 19.6258 19.7387 20.1543C17.5289 21.0714 14.9992 21.5942 12.3103 21.5991C9.03202 21.605 5.98731 20.8402 3.46847 19.5275C3.45637 19.5124 3.44448 19.497 3.43238 19.4818C3.43053 19.4795 3.42868 19.4773 3.42704 19.4748C3.42212 19.4684 3.4172 19.4621 3.41207 19.4557C3.40817 19.4508 3.40448 19.4459 3.40059 19.441C3.39259 19.4307 3.38479 19.4204 3.3768 19.4102C3.36162 19.3905 3.34644 19.3708 3.33147 19.3511C3.31937 19.3353 3.30747 19.3195 3.29558 19.3037C3.28819 19.2939 3.2806 19.284 3.27322 19.2739C3.26584 19.2641 3.25825 19.254 3.25086 19.2442C3.23753 19.2261 3.2242 19.2083 3.21087 19.1902C3.20943 19.1884 3.208 19.1863 3.20656 19.1843C3.19302 19.1658 3.17949 19.1474 3.16616 19.1289C3.16513 19.1273 3.1639 19.1258 3.16267 19.1242C3.15754 19.1172 3.15262 19.1102 3.14749 19.1033C3.13498 19.086 3.12268 19.0688 3.11017 19.0513C3.10278 19.0409 3.09519 19.0304 3.08781 19.02L3.07366 18.9998C3.06935 18.9937 3.06504 18.9875 3.06074 18.9816C3.05212 18.9695 3.04371 18.9572 3.0351 18.9451C3.03407 18.9436 3.03305 18.942 3.03202 18.9406C3.0232 18.9278 3.01438 18.9153 3.00577 18.9026C2.999 18.893 2.99223 18.8831 2.98547 18.8733C2.98013 18.8655 2.9748 18.8577 2.96926 18.8497C2.96229 18.8396 2.95552 18.8294 2.94855 18.8193C2.94116 18.8084 2.93357 18.7974 2.92619 18.7865C2.92393 18.7832 2.92168 18.7799 2.91963 18.7766C2.91265 18.7664 2.90568 18.7559 2.89871 18.7454C2.88763 18.7288 2.87655 18.7122 2.86548 18.6956C2.85728 18.6833 2.84928 18.6712 2.84128 18.6589C2.83266 18.6459 2.82426 18.633 2.81585 18.6199C2.80477 18.6029 2.7937 18.5858 2.78283 18.5686C2.78139 18.5663 2.77975 18.5639 2.77831 18.5616C2.76683 18.544 2.75555 18.5261 2.74447 18.5085C2.73688 18.4968 2.7295 18.4849 2.72211 18.4732C2.71658 18.4646 2.71104 18.4558 2.70571 18.4471C2.70345 18.4436 2.7014 18.4402 2.69914 18.4369C2.69771 18.4348 2.69648 18.4328 2.69525 18.4305C2.69033 18.4227 2.6854 18.4147 2.68048 18.4069C2.67699 18.4014 2.67351 18.3956 2.67002 18.3899C2.66264 18.378 2.65525 18.3661 2.64787 18.354C2.63966 18.3407 2.63146 18.3271 2.62326 18.3136C2.61854 18.3058 2.61382 18.2982 2.60931 18.2904C2.60705 18.2865 2.60459 18.2826 2.60234 18.2789C2.59926 18.274 2.59639 18.2688 2.59331 18.2639C2.59147 18.261 2.58983 18.2582 2.58819 18.2553C2.58183 18.2448 2.57547 18.2344 2.56932 18.2239C2.56275 18.213 2.5564 18.2022 2.55004 18.1915C2.54429 18.1819 2.53855 18.172 2.53281 18.1622C2.52645 18.1513 2.52009 18.1404 2.51373 18.1295C2.50717 18.1185 2.50081 18.1074 2.49445 18.0963C2.49322 18.0945 2.4922 18.0926 2.49117 18.0908C2.48768 18.0848 2.4844 18.0789 2.48092 18.0729C2.4721 18.0575 2.46328 18.0423 2.45467 18.027C2.45118 18.0208 2.44769 18.0146 2.44421 18.0087C2.436 17.9943 2.4278 17.9798 2.41959 17.9654C2.41611 17.9595 2.41282 17.9535 2.40954 17.9476L2.40831 17.9455C2.39908 17.9293 2.39006 17.9131 2.38103 17.8967C2.37878 17.8928 2.37673 17.8889 2.37468 17.885C2.36504 17.8677 2.35581 17.8507 2.34637 17.8335C2.34494 17.8308 2.3435 17.8281 2.34207 17.8255C2.33673 17.8156 2.33119 17.8056 2.32586 17.7957C2.32053 17.7859 2.3152 17.776 2.30986 17.7662C2.29961 17.7471 2.28935 17.728 2.2791 17.7087C2.26884 17.6897 2.25879 17.6704 2.24874 17.6513C2.23705 17.6291 2.22557 17.607 2.21408 17.5846C2.20526 17.5676 2.19644 17.5506 2.18762 17.5333C2.18619 17.5307 2.18496 17.528 2.18373 17.5255C2.17716 17.5128 2.17081 17.5001 2.16445 17.4874C2.16199 17.4824 2.15932 17.4773 2.15686 17.4722C2.1546 17.4677 2.15235 17.4629 2.15009 17.4584C2.13758 17.4334 2.12507 17.4084 2.11276 17.3833C2.10805 17.3735 2.10312 17.3637 2.09841 17.3538C2.0902 17.337 2.082 17.3202 2.07379 17.3033C2.0662 17.2875 2.05841 17.2715 2.05082 17.2555C2.04857 17.2508 2.04631 17.2463 2.04426 17.2416C2.03811 17.2287 2.03195 17.2157 2.0258 17.2028C2.02334 17.1979 2.02108 17.193 2.01883 17.188C2.01657 17.1833 2.01431 17.1786 2.01226 17.1739C2.01083 17.1712 2.0098 17.1687 2.00857 17.1661C2.00242 17.1529 1.99627 17.1398 1.99011 17.1267C1.98499 17.1158 1.97986 17.1049 1.97514 17.0941C1.9733 17.0904 1.97165 17.0865 1.97001 17.0828C1.96632 17.075 1.96284 17.0674 1.95935 17.0596C1.95873 17.0584 1.95812 17.0571 1.95771 17.0559C1.95156 17.0426 1.9454 17.0292 1.93945 17.0159C1.93433 17.0048 1.9294 16.9935 1.92448 16.9825C1.91833 16.9685 1.91197 16.9548 1.90602 16.9408C1.90213 16.932 1.89823 16.9232 1.89433 16.9145C1.88838 16.9008 1.88244 16.8873 1.87649 16.8735C1.87382 16.8674 1.87115 16.8614 1.86849 16.8553C1.86582 16.8491 1.86316 16.8431 1.86049 16.837C1.85926 16.8341 1.85803 16.8312 1.8568 16.8284C1.85106 16.815 1.84511 16.8015 1.83957 16.788C1.83813 16.7849 1.8369 16.7816 1.83547 16.7783C1.83424 16.7756 1.83321 16.773 1.83198 16.7703C1.83014 16.766 1.82829 16.7615 1.82644 16.7572C1.82193 16.7463 1.81721 16.7354 1.8127 16.7246C1.81106 16.7209 1.80963 16.7174 1.80819 16.7137C1.80224 16.6993 1.79609 16.685 1.79035 16.6704C1.7844 16.6564 1.77866 16.6423 1.77291 16.6281L1.7723 16.6265C1.77127 16.6242 1.77045 16.6218 1.76943 16.6195C1.76635 16.6119 1.76307 16.6041 1.75999 16.5965C1.75794 16.5916 1.75589 16.5865 1.75384 16.5816C1.75179 16.5766 1.74973 16.5715 1.74768 16.5664C1.7444 16.5586 1.74112 16.5506 1.73804 16.5426C1.7362 16.5381 1.73435 16.5336 1.73271 16.529C1.72923 16.5206 1.72594 16.5122 1.72266 16.5038C1.72102 16.4997 1.71938 16.4956 1.71774 16.4915C1.71589 16.487 1.71405 16.4823 1.7122 16.4775C1.70564 16.4611 1.69928 16.4449 1.69292 16.4285C1.68862 16.4178 1.68451 16.407 1.68041 16.3963C1.6759 16.3844 1.67118 16.3725 1.66667 16.3606C1.66318 16.3516 1.6599 16.3427 1.65642 16.3337C1.6558 16.3323 1.65519 16.3308 1.65478 16.3294C1.64801 16.3116 1.64124 16.2935 1.63447 16.2755C1.62565 16.2519 1.61683 16.2281 1.60822 16.2043C1.60247 16.1885 1.59673 16.1727 1.59099 16.1569C1.58935 16.1524 1.58771 16.1478 1.58607 16.1433C1.58361 16.1368 1.58135 16.1302 1.57889 16.1236C1.57191 16.1041 1.56514 16.0849 1.55817 16.0654C1.55715 16.0625 1.55612 16.0598 1.5553 16.057C1.54894 16.0387 1.54238 16.0204 1.53623 16.002C1.53377 15.9952 1.53151 15.9884 1.52905 15.9814C1.52187 15.9605 1.51469 15.9394 1.50772 15.9183L1.50731 15.9172C1.49931 15.8934 1.49131 15.8698 1.48352 15.8458L1.48331 15.8452C1.47593 15.8227 1.46854 15.8001 1.46116 15.7773C1.46054 15.7751 1.45972 15.773 1.45911 15.7707C1.45173 15.7474 1.44414 15.724 1.43675 15.7006C1.42896 15.6764 1.42158 15.652 1.41399 15.6277C1.40742 15.6066 1.40086 15.5851 1.3945 15.5637C1.39307 15.5594 1.39184 15.5549 1.39061 15.5506C1.38363 15.5276 1.37686 15.5044 1.3701 15.4815C1.36333 15.4581 1.35635 15.4345 1.34959 15.4111C1.34918 15.4099 1.34876 15.4086 1.34835 15.4072C1.34138 15.383 1.33461 15.3588 1.32764 15.3344C1.32128 15.3122 1.31533 15.29 1.30918 15.2677L1.30877 15.2662C1.30816 15.2644 1.30774 15.2623 1.30713 15.2605C2.01513 15.7937 2.79082 16.2802 3.62476 16.7135C6.40858 18.1599 9.83909 19.0103 13.5487 19.0035C16.4335 18.9984 19.148 18.4752 21.5189 17.5579C22.2062 17.292 22.8648 16.9929 23.4904 16.6638C23.4957 16.7832 23.4984 16.9039 23.4986 17.0249Z" fill="#0077B6"/>
<path d="M24.8926 11.9961C24.8926 12.0195 24.8926 12.0429 24.8924 12.0663C24.8924 12.0872 24.8922 12.1083 24.8918 12.1293C24.8918 12.1332 24.8918 12.1371 24.8916 12.141C24.8916 12.1422 24.8916 12.1434 24.8916 12.1447C24.8914 12.1617 24.8911 12.1787 24.8909 12.1955C24.8909 12.2029 24.8907 12.2103 24.8905 12.2177C24.8903 12.2372 24.8897 12.2569 24.8893 12.2762C24.8887 12.2996 24.8883 12.3227 24.8875 12.3461C24.8868 12.365 24.8864 12.3841 24.8856 12.403C24.8856 12.4062 24.8854 12.4093 24.8854 12.4126C24.8846 12.437 24.8838 12.4612 24.8827 12.4854C24.8821 12.5023 24.8813 12.5189 24.8807 12.5355C24.8805 12.5388 24.8805 12.5421 24.8803 12.5453C24.8797 12.5587 24.879 12.572 24.8784 12.5854C24.8784 12.5872 24.8782 12.5892 24.8782 12.5911C24.8776 12.604 24.877 12.6167 24.8764 12.6295C24.8754 12.6508 24.8741 12.6723 24.8729 12.6937C24.8719 12.7111 24.8708 12.7283 24.8698 12.7458C24.868 12.7749 24.8661 12.8041 24.8641 12.8332C24.8624 12.8558 24.861 12.8785 24.8591 12.9011C24.8575 12.9241 24.8557 12.9471 24.8538 12.97C24.8522 12.9906 24.8505 13.0111 24.8487 13.0316C24.8487 13.0322 24.8487 13.0328 24.8485 13.0334C24.8468 13.0537 24.845 13.0743 24.8432 13.0946C24.8423 13.1048 24.8413 13.1153 24.8403 13.1255C24.8391 13.1389 24.8378 13.1524 24.8364 13.1658C24.836 13.1707 24.8354 13.1758 24.8349 13.1807C24.8333 13.1982 24.8315 13.2154 24.8298 13.2329C24.8288 13.2431 24.8278 13.2534 24.8265 13.2636C24.8249 13.28 24.8231 13.2965 24.8212 13.3129C24.82 13.3239 24.8187 13.3348 24.8175 13.3459C21.7334 16.004 17.3143 17.6691 12.4057 17.6691C8.0555 17.6691 4.08968 16.3612 1.09706 14.2133C1.09604 14.208 1.09501 14.2027 1.09399 14.1973C1.09378 14.1965 1.09358 14.1955 1.09337 14.1945C1.09112 14.1822 1.08886 14.1698 1.0866 14.1575C1.08537 14.1506 1.08414 14.1438 1.08291 14.1368C1.08045 14.1237 1.07819 14.1103 1.07594 14.0972C1.06999 14.0644 1.06445 14.0316 1.05891 13.9985C1.0583 13.9957 1.05789 13.9928 1.05748 13.9899C1.05522 13.977 1.05317 13.9639 1.05112 13.9507C1.04866 13.936 1.0464 13.9214 1.04394 13.9066C1.04333 13.9031 1.04292 13.8996 1.0423 13.8959C1.03882 13.8742 1.03533 13.8522 1.03205 13.8305C1.03164 13.8276 1.03123 13.825 1.03082 13.8221C1.02794 13.8042 1.02528 13.7864 1.02282 13.7685C1.022 13.7638 1.02138 13.7591 1.02077 13.7544C1.01851 13.74 1.01666 13.7259 1.01461 13.7115C1.014 13.7074 1.01359 13.7033 1.01297 13.6992C1.01092 13.6848 1.00887 13.6705 1.00682 13.6561C1.00456 13.6397 1.00231 13.6231 1.00005 13.6067C0.99882 13.598 0.997793 13.5892 0.996563 13.5806C0.994512 13.5652 0.992463 13.55 0.990617 13.5346C0.987745 13.5125 0.985078 13.4903 0.982412 13.4684C0.979951 13.4485 0.977695 13.4286 0.975234 13.4087C0.973593 13.3947 0.971953 13.3806 0.970312 13.3666C0.969286 13.3582 0.968466 13.35 0.96744 13.3416C0.96621 13.3309 0.964978 13.32 0.963953 13.3094C0.962722 13.2977 0.961493 13.2858 0.960262 13.2741C0.959442 13.2659 0.958416 13.2577 0.957596 13.2495C0.95616 13.2363 0.954928 13.223 0.953492 13.2099C0.951851 13.1933 0.950211 13.1766 0.94857 13.1598C0.947545 13.1502 0.946724 13.1405 0.945698 13.1309C0.944058 13.1134 0.942417 13.096 0.940981 13.0786C0.940776 13.0761 0.940571 13.0736 0.940366 13.0712C0.93852 13.0507 0.936879 13.0304 0.935033 13.0098C0.933597 12.993 0.932162 12.976 0.930932 12.959C0.929496 12.9425 0.928267 12.9259 0.927036 12.9095C0.925805 12.8925 0.924574 12.8755 0.923343 12.8584C0.922318 12.8441 0.921292 12.8299 0.920471 12.8155C0.920266 12.8133 0.920266 12.811 0.920061 12.809C0.919035 12.7922 0.917807 12.7753 0.916781 12.7587C0.915961 12.7476 0.915343 12.7363 0.914728 12.7253C0.914113 12.7142 0.913498 12.7029 0.912678 12.6918C0.912678 12.6904 0.912472 12.6892 0.912472 12.6877C0.911447 12.6676 0.910218 12.6477 0.909192 12.6276C0.908987 12.6235 0.908782 12.6192 0.908577 12.6151C0.907346 12.5899 0.906114 12.5648 0.904884 12.5398C0.904884 12.5388 0.904883 12.5378 0.904678 12.5369C0.903653 12.5117 0.902422 12.4867 0.901601 12.4614C0.901601 12.4594 0.901399 12.4575 0.901399 12.4555C0.900783 12.4385 0.900166 12.4216 0.899551 12.4048C0.899346 12.3989 0.899143 12.3931 0.898937 12.3872C0.898937 12.3855 0.898937 12.3839 0.898732 12.382C0.898732 12.3808 0.898732 12.3796 0.898732 12.3783C0.898117 12.3605 0.897705 12.3428 0.89709 12.325C0.89709 12.3227 0.896884 12.3203 0.896884 12.318C0.896679 12.3098 0.896476 12.3018 0.896271 12.2936C0.895861 12.2762 0.895449 12.2585 0.895039 12.2411C0.894834 12.2294 0.894628 12.2175 0.894423 12.2058C0.893808 12.1685 0.893399 12.1311 0.892989 12.0938C0.892989 12.0841 0.892783 12.0745 0.892783 12.0646C0.892578 12.0421 0.892578 12.0195 0.892578 11.9969C0.892578 11.9754 0.892578 11.9541 0.892783 11.9325C0.892783 11.9233 0.892989 11.914 0.892989 11.905C0.892989 11.8909 0.893194 11.8767 0.893399 11.8625C0.893399 11.8595 0.893399 11.8564 0.893399 11.8533C0.893399 11.8488 0.893605 11.8443 0.893605 11.8398C0.89381 11.8283 0.893808 11.8166 0.894218 11.8051C0.894628 11.7715 0.895246 11.7378 0.896271 11.7044C0.896476 11.6914 0.896885 11.6787 0.897295 11.6658C0.897705 11.6471 0.898322 11.6285 0.898937 11.6098C0.899348 11.5946 0.899962 11.5792 0.900372 11.564C0.900577 11.5599 0.900578 11.5556 0.900783 11.5515C0.900988 11.5482 0.900988 11.5447 0.901193 11.5415C0.901809 11.5263 0.902218 11.5113 0.903038 11.4963C0.903654 11.4803 0.904269 11.4643 0.905089 11.4483C0.905089 11.4461 0.905294 11.4436 0.905294 11.4413C0.905294 11.4393 0.9055 11.4372 0.9055 11.4352C0.90632 11.4188 0.906935 11.4024 0.907961 11.3859C0.908166 11.3818 0.908371 11.3777 0.908577 11.3738C0.909397 11.3572 0.910217 11.3406 0.911243 11.324C0.911653 11.3154 0.912062 11.3066 0.912678 11.2979C0.913703 11.2787 0.914935 11.2594 0.916165 11.2401C0.916986 11.2276 0.917806 11.2148 0.918626 11.2021C0.918831 11.2003 0.918832 11.1984 0.919037 11.1966C0.919652 11.1873 0.920267 11.1783 0.920882 11.1691C0.920882 11.1687 0.920882 11.1685 0.920882 11.1681C0.920882 11.1672 0.920882 11.1662 0.921087 11.1652C0.921908 11.1529 0.922728 11.1404 0.923754 11.1281C0.923959 11.1252 0.924165 11.1225 0.92437 11.1196C0.9256 11.1022 0.92683 11.0848 0.928265 11.0673C0.928881 11.0587 0.929495 11.0503 0.930316 11.0417C0.931341 11.0269 0.932573 11.0119 0.933803 10.9972C0.934624 10.9873 0.935444 10.9775 0.936265 10.9678C0.937085 10.958 0.937905 10.9481 0.938726 10.9383C0.939751 10.9249 0.940983 10.9116 0.942213 10.8983C0.944059 10.8782 0.945903 10.8579 0.947749 10.8377C0.950005 10.815 0.952263 10.7924 0.954519 10.7696C0.956775 10.7467 0.959236 10.7237 0.961697 10.7009C0.962107 10.6962 0.962721 10.6913 0.963131 10.6863C0.963336 10.6837 0.963747 10.681 0.963953 10.6781C0.965593 10.6621 0.967439 10.6461 0.969285 10.6301C0.970721 10.6166 0.972361 10.603 0.974002 10.5895C0.975848 10.5729 0.9779 10.5563 0.979951 10.5398C0.981387 10.5277 0.982822 10.5158 0.984463 10.5039C0.985898 10.4918 0.987539 10.4799 0.988974 10.468C0.99123 10.4494 0.993694 10.4305 0.996155 10.4118C0.996565 10.4085 0.996974 10.4053 0.997384 10.402C0.998204 10.3954 0.999025 10.3888 1.00005 10.3825C1.00292 10.3609 1.006 10.3396 1.00887 10.3181C1.01154 10.2988 1.01441 10.2793 1.01728 10.2598C1.01892 10.2483 1.02056 10.2366 1.02241 10.2251C1.02528 10.2062 1.02794 10.1874 1.03082 10.1687C1.0343 10.1459 1.03779 10.1232 1.04148 10.1004C1.04456 10.0811 1.04763 10.0616 1.05091 10.0423C1.05358 10.0257 1.05625 10.0091 1.05912 9.99267C1.0665 9.94856 1.07409 9.90465 1.08209 9.86075C1.08435 9.84823 1.0866 9.83572 1.08886 9.8232C1.08988 9.81807 1.0907 9.81294 1.09173 9.80781C1.09317 9.7994 1.09481 9.79079 1.09645 9.78237C1.09891 9.76904 1.10137 9.7555 1.10404 9.74216C1.10465 9.73929 1.10506 9.73662 1.10568 9.73375C1.10978 9.712 1.11409 9.69005 1.11819 9.6683C1.1227 9.64512 1.12742 9.62173 1.13214 9.59855C1.13234 9.59711 1.13275 9.59588 1.13295 9.59465C1.13542 9.58234 1.13808 9.57003 1.14054 9.55772C1.14259 9.54767 1.14465 9.53761 1.1467 9.52756C1.14711 9.52571 1.14752 9.52366 1.14793 9.52181C1.1508 9.50766 1.15388 9.4935 1.15695 9.47934C1.16352 9.44857 1.17028 9.41759 1.17705 9.38681C1.17787 9.38251 1.1789 9.3784 1.17992 9.3741C1.18054 9.37163 1.18095 9.36917 1.18156 9.36671C1.18402 9.35583 1.18628 9.34516 1.18874 9.33429C1.18936 9.33121 1.19018 9.32793 1.191 9.32485C1.1912 9.32383 1.19141 9.3228 1.19161 9.32178C1.19572 9.30393 1.19982 9.28608 1.20392 9.26823C1.21233 9.23171 1.22094 9.19519 1.22997 9.15888C1.23427 9.14062 1.23879 9.12256 1.2433 9.1043C1.24781 9.08604 1.25232 9.06799 1.25684 9.04973C1.26586 9.01444 1.27468 8.97915 1.28411 8.94386C1.28432 8.94283 1.28473 8.94202 1.28493 8.94099C1.28514 8.94017 1.28535 8.93935 1.28555 8.93853C4.376 11.6804 8.86523 13.4054 13.8615 13.4054C16.3463 13.4054 18.7057 12.9787 20.83 12.2124C22.2638 11.4863 23.5506 10.5926 24.6465 9.56633C24.6916 9.78627 24.7308 10.0083 24.7638 10.2323C24.8487 10.8076 24.8926 11.3966 24.8926 11.9961Z" fill="#0077B6"/>
<path d="M13.8922 12.1798C13.8819 12.1798 13.8719 12.1798 13.8616 12.1798C13.4274 12.1798 12.998 12.1591 12.5742 12.1189C12.5845 12.1178 12.5945 12.117 12.6048 12.116C13.0283 12.1572 13.4578 12.179 13.8922 12.1798Z" fill="#0077B6" stroke="#0077B6" stroke-miterlimit="10"/>
<path d="M23.8713 7.63304C23.8341 7.78097 23.733 7.90797 23.6325 8.02532C21.2109 10.8552 17.2599 12.7462 13.5423 12.9585C10.1692 13.1511 6.81801 11.9276 3.92958 10.1744C3.41601 9.86258 2.92029 9.5138 2.48404 9.09895C2.26048 8.8864 2.0523 8.65703 1.86894 8.40857C1.64374 8.10349 1.59657 8.00993 1.74137 7.66197C2.24756 6.44657 2.98592 5.31487 3.86805 4.33972C4.86812 6.08137 6.54133 7.38356 8.40467 8.1318C10.268 8.87984 12.3133 9.10059 14.3181 8.99226C15.89 8.90733 17.468 8.61928 18.897 7.95864C20.3259 7.29801 21.6016 6.24428 22.3593 4.86392C22.9098 5.54179 23.3794 6.2851 23.7554 7.07314C23.8315 7.23235 23.9053 7.40449 23.8813 7.57949C23.8793 7.59755 23.8758 7.6154 23.8713 7.63304Z" fill="#0077B6"/>
<path d="M4.9129 3.36745C4.9129 3.36745 4.04984 6.09882 8.74746 7.00934C13.4451 7.91987 4.9129 3.36745 4.9129 3.36745Z" fill="#0077B6"/>
<path d="M20.5063 4.30646C20.4833 4.43277 20.4027 4.53979 20.3213 4.63807C19.3472 5.81241 17.9084 6.49369 16.4515 6.90409C13.892 7.62498 11.1318 7.60386 8.58806 6.82734C7.83953 6.59889 7.099 6.30038 6.48066 5.81464C5.94691 5.39531 5.40236 4.74306 5.29357 4.04207C5.17378 3.27001 5.74853 2.64274 6.30927 2.20777C7.27618 1.45784 8.39148 0.905699 9.56876 0.593788C9.1776 1.33417 9.2366 2.27052 9.61956 3.01516C10.0025 3.76001 10.6773 4.3221 11.428 4.67523C12.6937 5.27063 14.2081 5.29357 15.4908 4.73696C16.7735 4.18036 17.8038 3.05293 18.2547 1.71269C19.1682 2.16796 19.9312 2.92845 20.3961 3.84774C20.4679 3.98948 20.5343 4.14665 20.5071 4.30362L20.5063 4.30646Z" fill="#0077B6" stroke="#0077B6" stroke-miterlimit="10"/>
<path d="M13.1448 0.00394435C13.3052 0.0107148 13.4654 0.0259001 13.6233 0.048058C14.6018 0.184698 15.5443 0.572254 16.336 1.16354C16.5372 1.31372 16.7466 1.5154 16.7332 1.76612C16.7211 1.992 16.5316 2.16372 16.3489 2.29688C14.9882 3.28783 13.1692 3.61917 11.5467 3.17171C11.2669 3.09456 10.9861 2.99177 10.7671 2.80138C9.89909 2.04801 10.7384 0.725311 11.5282 0.316006C12.0219 0.0603691 12.5855 -0.0196497 13.1448 0.00394435Z" fill="#0077B6"/>
</svg>
